<svg xmlns="http://www.w3.org/2000/svg" version="1.1" xmlns:xlink="http://www.w3.org/1999/xlink" width="24" height="24" x="0" y="0" viewBox="0 0 24 24" style="enable-background:new 0 0 512 512" xml:space="preserve"><g><path d="M9 22c0 1.1-.9 2-2 2s-2-.9-2-2 .9-2 2-2 2 .9 2 2Zm8-2c-1.1 0-2 .9-2 2s.9 2 2 2 2-.9 2-2-.9-2-2-2Zm6.32-15.9C22.75 3.4 21.9 3 21 3h-7v6.5l1.32-1.23a.987.987 0 0 1 1.41.05c.38.4.35 1.04-.05 1.41l-1.59 1.48c-.57.57-1.33.86-2.09.86s-1.54-.29-2.13-.88L9.31 9.73a.997.997 0 1 1 1.36-1.46l1.32 1.23V3H5.24l-.04-.35A3.004 3.004 0 0 0 2.22 0H1C.45 0 0 .45 0 1s.45 1 1 1h1.22c.51 0 .93.38.99.88l1.38 11.7C4.89 17.1 7.02 19 9.56 19H19c.55 0 1-.45 1-1s-.45-1-1-1H9.56c-1.29 0-2.4-.83-2.82-2h11.42c2.38 0 4.44-1.69 4.9-4.02l.88-4.39a2.99 2.99 0 0 0-.62-2.49Z" fill="#000000" opacity="1" data-original="#000000"></path></g></svg>