<svg width="21" height="20" viewBox="0 0 21 20" fill="none" xmlns="http://www.w3.org/2000/svg">
<g id="Group">
<path id="Vector" d="M5.2367 7.43123C5.03495 7.32064 4.78166 7.39459 4.67104 7.59642L4.66268 7.61158C4.55209 7.81338 4.626 8.06666 4.82788 8.17724C4.87586 8.20355 4.92856 8.22014 4.98296 8.22608C5.03736 8.23202 5.0924 8.22717 5.14493 8.21183C5.19746 8.19649 5.24645 8.17095 5.28911 8.13667C5.33177 8.10239 5.36725 8.06004 5.39354 8.01205L5.4019 7.99689C5.51248 7.79509 5.4385 7.54181 5.2367 7.43123Z" fill="#8747F3"/>
<path id="Vector_2" d="M18.5714 8.75613C17.9162 6.20582 16.0791 4.08578 13.6002 3.09508C13.172 1.75789 11.913 0.833008 10.5 0.833008C9.05098 0.833008 7.82055 1.78504 7.40008 3.09629C5.90715 3.69426 4.62867 4.70301 3.69332 6.02453C3.10242 6.85945 2.67641 7.78242 2.42695 8.75625C1.35105 8.8366 0.5 9.73703 0.5 10.8331C0.5 11.9298 1.35191 12.8307 2.42867 12.9101C3.35395 16.5035 6.6218 19.1665 10.5 19.1665C14.3782 19.1665 17.6461 16.5035 18.5713 12.9101C19.648 12.8307 20.5 11.9298 20.5 10.833C20.5 9.73645 19.6481 8.83566 18.5714 8.75613ZM1.3334 10.833C1.3334 10.258 1.72375 9.77254 2.25328 9.62738C2.21732 9.87637 2.19255 10.1268 2.17906 10.378C2.17883 10.3816 2.17871 10.385 2.17852 10.3885C2.17605 10.4345 2.17398 10.4805 2.1723 10.5265C2.17164 10.5439 2.17129 10.5614 2.17082 10.5789C2.1698 10.6119 2.16875 10.6449 2.16812 10.678C2.16719 10.7297 2.16671 10.7814 2.16668 10.833C2.16676 10.9159 2.16811 10.9987 2.17074 11.0814C2.17207 11.1273 2.17387 11.1732 2.17598 11.2191C2.17684 11.2386 2.17762 11.258 2.17859 11.2775C2.18164 11.3348 2.18531 11.392 2.18949 11.4492C2.19148 11.4761 2.19383 11.5028 2.19602 11.5296C2.20133 11.5934 2.20733 11.6571 2.21402 11.7207C2.2177 11.7556 2.22188 11.7904 2.22598 11.8252C2.23141 11.8707 2.23723 11.9161 2.24336 11.9614C2.24688 11.9873 2.25012 12.0132 2.25387 12.039C1.72402 11.8941 1.3334 11.4083 1.3334 10.833ZM10.5 1.66641C11.3253 1.66641 12.0801 2.09023 12.5207 2.75363C12.5124 2.75355 12.504 2.75352 12.4957 2.75352C12.4904 2.75352 12.4851 2.75391 12.4797 2.75395C12.4777 2.75402 12.4755 2.75398 12.4734 2.7541C11.1761 2.76617 10.1243 3.82484 10.1243 5.12496C10.1243 5.6309 10.2833 6.11191 10.5689 6.50879C10.5459 6.50943 10.523 6.50975 10.5 6.50977C9.16477 6.50977 8.07844 5.42344 8.07844 4.08816C8.0784 2.75277 9.16473 1.66641 10.5 1.66641ZM17.9973 11.0305C17.9971 11.0406 17.9965 11.0507 17.9962 11.0609C17.9946 11.1167 17.9923 11.1726 17.9895 11.2284C17.989 11.2383 17.9882 11.2483 17.9876 11.2582C17.9845 11.314 17.9809 11.3698 17.9766 11.4255C17.9757 11.4367 17.9745 11.4479 17.9736 11.4591C17.9691 11.513 17.9642 11.5667 17.9586 11.6205C17.9571 11.6354 17.9552 11.6503 17.9535 11.6652C17.948 11.7145 17.9423 11.7636 17.9359 11.8127C17.9332 11.8332 17.9302 11.8537 17.9273 11.8741C17.9214 11.9166 17.9154 11.959 17.9088 12.0013C17.9044 12.0289 17.8997 12.0562 17.8951 12.0837C17.8893 12.1179 17.8836 12.1521 17.8773 12.1863C17.871 12.221 17.8643 12.2555 17.8574 12.29C17.8523 12.3159 17.8473 12.3418 17.8419 12.3676C17.1318 15.7696 14.1096 18.3331 10.5 18.3331C6.88762 18.3331 3.86371 15.766 3.15645 12.3603C3.15004 12.3294 3.14414 12.2984 3.13816 12.2673C3.13238 12.2377 3.12648 12.2081 3.12109 12.1784C3.11354 12.1362 3.10634 12.094 3.09949 12.0517C3.09633 12.0323 3.09285 12.0129 3.08984 11.9935C3.08156 11.94 3.07398 11.8864 3.0668 11.8327C3.06559 11.8236 3.0641 11.8145 3.06297 11.8054C3.05477 11.7421 3.04727 11.6787 3.04066 11.6153L3.04059 11.6144C3.01356 11.3548 3 11.0941 2.99996 10.8332C3.00009 10.755 3.00146 10.6768 3.00406 10.5986C3.00527 10.559 3.00691 10.5194 3.00879 10.4798C3.00984 10.4567 3.01086 10.4336 3.01215 10.4106C3.01414 10.3755 3.01664 10.3405 3.0191 10.3054C3.02344 10.2449 3.02832 10.1845 3.03406 10.1242C3.03473 10.1173 3.03527 10.1104 3.03594 10.1035C3.29203 7.51012 4.89816 5.20871 7.24535 4.07504C7.24535 4.07945 7.24504 4.08379 7.24504 4.0882C7.24508 4.37932 7.2843 4.66911 7.36164 4.94977C6.61375 5.34801 5.95699 5.87863 5.40648 6.53102C5.25805 6.70691 5.28035 6.96981 5.45625 7.11816C5.53129 7.18168 5.62645 7.21649 5.72477 7.21637C5.84328 7.21637 5.96102 7.16605 6.0434 7.0684C6.50844 6.5173 7.06004 6.06566 7.68637 5.7216C8.2509 6.69023 9.30035 7.34316 10.5 7.34316C10.8658 7.34352 11.229 7.28207 11.5743 7.16141C11.6479 7.13564 11.7128 7.08974 11.7616 7.02892C11.8104 6.9681 11.8412 6.8948 11.8504 6.81736C11.8596 6.73992 11.8469 6.66144 11.8138 6.59086C11.7806 6.52028 11.7283 6.46042 11.6628 6.41809C11.2213 6.13289 10.9577 5.64953 10.9577 5.12504C10.9577 4.29414 11.6201 3.61551 12.4445 3.58828C15.2123 4.32879 17.2707 6.56672 17.8409 9.2943C17.8504 9.33941 17.8595 9.38461 17.8681 9.42992C17.8725 9.45359 17.8766 9.47742 17.881 9.50117C17.8876 9.53824 17.8941 9.57539 17.9002 9.61258C17.9107 9.67664 17.9204 9.74084 17.9292 9.80516C17.9316 9.82262 17.9341 9.84008 17.9364 9.85758C17.9523 9.97937 17.9652 10.1016 17.9752 10.2241C17.9763 10.2382 17.9772 10.2523 17.9782 10.2664C17.9866 10.3767 17.9925 10.4872 17.9959 10.5978C17.9964 10.6152 17.9971 10.6325 17.9975 10.6499C17.999 10.711 18 10.7721 18 10.8331C17.9999 10.8989 17.999 10.9647 17.9973 11.0305ZM18.7461 12.039C18.7507 12.0075 18.7548 11.9759 18.7591 11.9443C18.7692 11.8689 18.7783 11.7934 18.7864 11.7177C18.7893 11.6902 18.792 11.6625 18.7946 11.6348C18.7981 11.5985 18.8013 11.5622 18.8043 11.5259C18.8064 11.5008 18.8086 11.4757 18.8105 11.4505C18.8148 11.3926 18.8184 11.3348 18.8215 11.2768C18.8226 11.2581 18.8232 11.2394 18.8241 11.2207C18.8262 11.1741 18.828 11.1275 18.8294 11.0809C18.8319 10.9983 18.8332 10.9157 18.8334 10.833C18.8334 10.778 18.8327 10.7231 18.8317 10.6681C18.8312 10.6482 18.8306 10.6282 18.83 10.6083C18.8291 10.5738 18.8281 10.5393 18.8268 10.5048C18.8258 10.4802 18.8246 10.4557 18.8235 10.4312C18.822 10.4015 18.8205 10.3719 18.8188 10.3423C18.8156 10.2884 18.8119 10.2345 18.8077 10.1806C18.8055 10.1529 18.8034 10.1252 18.8009 10.0976C18.7985 10.0709 18.7959 10.0443 18.7933 10.0176C18.7906 9.99012 18.788 9.96262 18.7851 9.93516C18.7818 9.90414 18.778 9.87328 18.7743 9.8423C18.7702 9.80789 18.766 9.77355 18.7615 9.73926C18.7565 9.70184 18.7516 9.66441 18.7462 9.62711C19.2761 9.77203 19.6667 10.2577 19.6667 10.8329C19.6666 11.4084 19.2761 11.8941 18.7461 12.039Z" fill="#8747F3"/>
<path id="Vector_3" d="M9.01727 11.3154C8.82235 10.5881 8.1604 10.0801 7.40739 10.0801C6.6545 10.0801 5.99247 10.5881 5.79751 11.3154C5.73794 11.5377 5.86985 11.7662 6.09212 11.8258C6.31446 11.8853 6.5429 11.7534 6.60247 11.5312C6.69997 11.1675 7.03095 10.9134 7.40735 10.9134C7.7838 10.9134 8.11477 11.1675 8.21223 11.5312C8.26212 11.7173 8.43052 11.8401 8.61446 11.8401C8.65013 11.8401 8.68645 11.8355 8.72259 11.8258C8.94497 11.7662 9.07684 11.5377 9.01727 11.3154ZM13.5917 10.0801C12.8387 10.0801 12.1767 10.5881 11.9818 11.3155C11.9223 11.5378 12.0542 11.7663 12.2765 11.8258C12.4987 11.8854 12.7272 11.7534 12.7868 11.5311C12.8842 11.1675 13.2152 10.9134 13.5917 10.9134C13.9681 10.9134 14.2991 11.1675 14.3966 11.5312C14.4465 11.7173 14.6148 11.8401 14.7988 11.8401C14.8345 11.8401 14.8708 11.8355 14.9069 11.8258C15.1292 11.7662 15.2611 11.5377 15.2015 11.3154C15.0066 10.5881 14.3447 10.0801 13.5917 10.0801ZM11.8148 14.2389C11.5926 14.1794 11.364 14.3112 11.3045 14.5336C11.207 14.8973 10.876 15.1513 10.4996 15.1513C10.1231 15.1513 9.79212 14.8973 9.6947 14.5336C9.63513 14.3113 9.40665 14.1793 9.18434 14.2389C8.96204 14.2985 8.83016 14.527 8.88973 14.7493C9.08466 15.4767 9.74661 15.9846 10.4996 15.9846C11.2525 15.9846 11.9146 15.4766 12.1095 14.7493C12.169 14.527 12.0371 14.2985 11.8148 14.2389Z" fill="#8747F3"/>
</g>
</svg>
