<svg xmlns="http://www.w3.org/2000/svg" width="100" height="100" viewBox="0 0 24.01 21.99" fill="currentColor" id="eyeIcon">
  <g id="eyeBody">
    <path d="M23.28,8.42c-1.55-2.53-5.08-6.76-11.27-6.76S2.28,5.89.73,8.42c-.98,1.58-.98,3.58,0,5.16,1.55,2.53,5.08,6.76,11.27,6.76s9.72-4.24,11.27-6.76c.98-1.58.98-3.58,0-5.16ZM21.57,12.53c-1.33,2.17-4.35,5.81-9.57,5.81S3.77,14.7,2.44,12.53c-.58-.94-.58-2.13,0-3.07,1.33-2.17,4.35-5.81,9.57-5.81s8.23,3.64,9.57,5.81c.58.94.58,2.13,0,3.07Z"/>
    <path d="M12,6c-2.76,0-5,2.24-5,5s2.24,5,5,5,5-2.24,5-5c0-2.76-2.24-5-5-5ZM12,14c-1.66,0-3-1.34-3-3s1.34-3,3-3,3,1.34,3,3-1.34,3-3,3Z"/>
  </g>
  
  <path id="strikeLine" 
        d="M4,3 L20,19" 
        stroke="currentColor"
        stroke-width="1.5" 
        stroke-linecap="round"
        pathLength="1"
        stroke-dasharray="1"
        stroke-dashoffset="0" />
</svg>