<svg xmlns="http://www.w3.org/2000/svg" version="1.1" xmlns:xlink="http://www.w3.org/1999/xlink" width="24" height="24" x="0" y="0" viewBox="0 0 24 24" style="enable-background:new 0 0 512 512" xml:space="preserve"><g><path d="M9.38 11A3.972 3.972 0 0 1 8 8c0-1.15.667-2.04 1.33-2.725 0 0 .454 1.391.858 1.391.842 0 .598-2.599 1.812-4 1.263 1.263 4 3.017 4 5.333a3.972 3.972 0 0 1-1.38 3H9.379zM24 14.286s-1.18-.641-2.962-.972c.969-.157 2.045-.672 2.514-1.846.962-2.408.077-5.619.077-5.619s-1.208.454-2.489 1.61c.636-1.051 1.177-2.57.551-3.829C20.54 1.314 17.5 0 17.5 0s-1.385 3.885.674 7.907c.683 4.483-.731 7.369-2.087 9.026a9.092 9.092 0 0 1-2.385 2.05l.798-5.984h-5l.798 5.984a9.108 9.108 0 0 1-2.385-2.05c-1.357-1.658-2.77-4.543-2.087-9.026C7.885 3.885 6.5 0 6.5 0S3.46 1.314 2.309 3.63c-.626 1.259-.085 2.779.551 3.829C1.58 6.304.371 5.85.371 5.85s-.885 3.211.077 5.619c.469 1.174 1.545 1.688 2.514 1.846-1.782.331-2.962.972-2.962.972-.051-.007 2.152 3.106 4.488 3.616C2.911 18.848 2 19.876 2 19.876s1.989 2.063 4.936 2.076c-.615 1.009-.891 1.765-.891 1.765s3.426.773 5.955-.254c2.529 1.028 5.955.254 5.955.254s-.276-.756-.891-1.765C20.011 21.939 22 19.876 22 19.876s-.911-1.027-2.488-1.973c2.322-.498 4.558-3.64 4.488-3.616z" fill="#000000" opacity="1" data-original="#000000"></path></g></svg>