<?xml version="1.0" encoding="UTF-8"?>
<svg id="Layer_2" data-name="Layer 2" xmlns="http://www.w3.org/2000/svg" viewBox="0 0 175.12 171">
  <defs>
    <style>
      .cls-1 {
        fill: #e13535;
      }
    </style>
  </defs>
  <g id="Layer_1-2" data-name="Layer 1">
    <g>
      <path class="cls-1" d="M97.12,0c5.5,1.66,11.24,2.04,16.78,3.72,28.59,8.67,52.54,33.88,58.73,63.27.99,4.72,1.15,9.54,2.49,14.01v11c-1.43,5.34-1.87,10.84-3.29,16.21-8.69,32.96-37.07,55.84-69.71,62.79h-29c-32.7-7.01-61-29.75-69.71-62.79-1.42-5.38-1.85-10.87-3.29-16.21.28-4.23-.38-8.84,0-13C3.77,39.45,37.2,4.04,77.12,0h20ZM79.9,15.28C30.55,20.55.17,74.08,23.95,118.67c26.77,50.17,101.47,49.77,127.69-.65,26.3-50.58-16.19-108.69-71.75-102.75Z"/>
      <path class="cls-1" d="M80.12,41.5c.72-3.33,5.99-5.93,8.75-3.23.2.19,2.25,3.99,2.25,4.23v41.5h2v-33.5c0-.24,2.06-4.04,2.25-4.23,2.8-2.75,7.92-.3,8.53,3.45l.26,43.63c-9.32,2.78-20.36,8.28-20.04,19.65,2.73.54,1.71-.68,2.42-2.02,5.77-10.9,12.6-16.11,25.57-12.97,2.16-8.72,3.14-24.91,16.01-20.99-6.51,18.03-6.64,47.1-24.31,58.18-20.09,12.59-47.35-.11-49.68-23.7-.97-9.8-1.25-35.51.08-44.93,1.02-7.25,9.91-4.48,9.91-1.06v22.5h3v-38.5c0-3.91,8.16-6.28,9.81-.81,2.26,7.48-1.37,24.2.2,32.8.31,1.73,1.07,2.8,2.99,2.51v-42.5Z"/>
    </g>
  </g>
</svg>