<?xml version="1.0" encoding="UTF-8"?>
<svg id="Layer_2" data-name="Layer 2" xmlns="http://www.w3.org/2000/svg" viewBox="0 0 172.19 172">
  <defs>
    <style>
      .cls-1 {
        fill: #039b21;
      }
    </style>
  </defs>
  <g id="Layer_1-2" data-name="Layer 1">
    <g>
      <path class="cls-1" d="M93.19,0c5.34,1.43,10.84,1.87,16.21,3.29,26.79,7.06,50.43,29.78,58.82,56.18,1.83,5.77,2.29,11.76,3.97,17.53v21c-2.34,9.68-4.91,19.14-9.48,28.02-12.97,25.22-36.75,41.09-64.52,45.98h-24c-20.16-4-38.32-13-52.03-28.47C9.72,129.47,3.49,113.38.19,95c.44-6.12-.61-12.99,0-19C4.13,37.16,39.97,3.92,78.19,0h15ZM78.97,16.28C37.12,20.71,8.98,60.95,17.85,101.84c12.23,56.36,85.12,73.87,122.37,29.68,40.59-48.15,1.14-121.86-61.25-115.25Z"/>
      <path class="cls-1" d="M54.91,52.21c4.22-.94,17.57-1.33,19.55,3.02.45.98,2.93,17.94,2.72,19.2-.58,3.35-7,9.15-6.99,11.05,3.89,8.5,11.29,15.28,19.53,19.53,2.3,0,7.07-6.51,11.07-7,1.62-.2,14.52,1.57,16.88,2.01,7.42,1.39,7.25,20.2,3.05,23.99-2.89,2.6-10.92,1.5-14.92.88-24.86-3.84-47.86-24.62-53.94-49.06-1.61-6.47-5.63-21.69,3.05-23.62Z"/>
    </g>
  </g>
</svg>