<svg xmlns="http://www.w3.org/2000/svg" id="call" width="30" height="30" viewBox="0 0 157.5 157.5" fill="currentColor">
  <g id="Group_25" data-name="Group 25">
    <path id="Path_10" data-name="Path 10" d="M144.862,103.38a89.423,89.423,0,0,1-28.083-4.473c-4.4-1.5-9.8-.124-12.484,2.632L86.585,114.908c-20.538-10.963-33.189-23.61-44-43.993L55.559,53.667a12.73,12.73,0,0,0,3.132-12.9,89.559,89.559,0,0,1-4.49-28.13A12.652,12.652,0,0,0,41.562,0H12.638A12.653,12.653,0,0,0,0,12.638C0,92.516,64.984,157.5,144.862,157.5A12.653,12.653,0,0,0,157.5,144.862V116.018A12.653,12.653,0,0,0,144.862,103.38Z" />
  </g>
</svg>