<?xml version="1.0" encoding="UTF-8"?>
<svg id="Layer_2" data-name="Layer 2" xmlns="http://www.w3.org/2000/svg" viewBox="0 0 175.11 172">
  <defs>
    <style>
      .cls-1 {
        fill: #ae825b;
      }
    </style>
  </defs>
  <g id="Layer_1-2" data-name="Layer 1">
    <g>
      <path class="cls-1" d="M94.11,0c6.69,1.68,13.82,2.01,20.44,4.06,27.74,8.58,51.36,33.86,57.88,62.12,1.14,4.96,1.31,9.99,2.68,14.82v11c-1.41,5.05-1.79,10.29-3.07,15.43-7.36,29.49-32.51,53.7-61.71,61.29l-17.22,3.28h-13c-5.05-1.27-10.16-1.93-15.22-3.28-29.31-7.87-54.27-31.5-61.71-61.29-1.28-5.14-1.66-10.37-3.07-15.43.25-3.93-.35-8.09,0-12C3.84,38,38.24,3.91,80.11,0h14ZM82.91,15.3C30.56,19.3-1.85,75.06,25.31,121.31c29.37,50.01,106.14,45.68,128.66-7.95,20.53-48.89-18.73-102.05-71.06-98.06Z"/>
      <path class="cls-1" d="M72.11,62l-.06,12.46,3.03.57c1.16,3.46-2.89,6.76-2.89,9.47s4.37,6.67,2.93,10.5c-24.59,2.84-24.11-13.86-23-33l-5.03-.47c-1.14-.81-1.18-1.57-.83-2.87.49-1.76,14.15-14.93,16.3-14.72,1.41.14,15.03,13.36,15.41,14.72,1.02,3.69-3.22,3.55-5.86,3.33Z"/>
      <path class="cls-1" d="M122.11,108.01h6c.13,1.11.03,1.98-.5,2.99-.43.81-12.12,12.57-12.94,13.05-2.28,1.34-2.79,1.37-5.11,0-.82-.49-12.52-12.24-12.94-13.05-.53-1.01-.63-1.88-.5-2.99h6s.06-12.39.06-12.39l-4.04-2.2c3.84-7.97,2.86-10.49-.03-18.4,25.56-3.81,24.96,13.17,23.99,33Z"/>
      <path class="cls-1" d="M81.27,75.16c.64-.4,8.06-.4,9.35-.17,2.86.52,5.76,7.68,5.49,10.41-.67,6.77-5.72,10.89-12.5,9.6-2.25-.43-6.42-8.51-6.42-10.5,0-.66,3.65-9.07,4.09-9.34Z"/>
    </g>
  </g>
</svg>