<svg xmlns="http://www.w3.org/2000/svg" id="Layer_2" viewBox="0 0 173.17 249.35" fill="currentColor">
  <g id="Layer_1-2">
    <path d="M23.7,113.93c-1.67-21.17,20.92-33.75,37.76-19.98,2.29,1.87,3.86,4.43,6.1,6.33l-15.09-70.01C51.83-.06,91.23-6.43,100.58,22.12l13.05,57.67,5.67-56.29c4.84-33.51,48.85-29.99,49.19,2.89l-8.57,86.56c9.28,6.8,12.32,19.99,12.96,30.96,2.6,44.55-11.39,90.98-59.28,103.15-50.33,12.79-99.93-30.19-103.49-79.79-.18-2.53.68-3.32,1.23-5.55-2.57-4.55-6.61-8.97-8.85-13.63-7.83-16.23,3.82-33.56,21.22-34.17ZM148.97,105.16l7.79-79.76c-.93-15.92-20.02-19.03-25.12-3.68l-8.05,80.7,25.38,2.74ZM106.08,102.72l-17.17-78.18c-6.07-14.39-24.14-10.83-24.69,4.71l17.01,77.86c7.52-5.29,15.94-6.29,24.85-4.39ZM43.07,99.9c-5.03.92-8.48,7.51-8.15,12.32.4,5.88,4.36,7.6,7.51,11.52,5.57,6.91,9.86,16.03,15.44,23.08,10.88,8.74,23.74-2.34,17.59-14.68-2.17-4.36-17.94-26.76-21.28-29.44s-6.98-3.56-11.11-2.8ZM65.14,161.26c3.6,18.83-14.8,33.99-32.65,25.6-2.04-.96-3.71-2.67-5.84-3.41,5.86,19.03,18.16,36.02,35.73,45.7,40.44,22.28,85.74-1.01,96.01-44.56,3.31-14.04,5.7-46-2.01-58.3-6.06-9.67-16.38-7.23-26.15-8.46l-40.9.57c-1.34.46-1.87,7.78-1.76,9.44.89,13.29,15.86,19.5,27.52,18.78,3.89-.24,7.68-2.54,10.75,1.45,2.71,3.51,1.04,7.29-2.71,9.04-6.76,3.15-21,4.75-23.36,13.21-1.53,5.5,1.09,17.29-7.96,15.71-5.8-1.01-4.99-7.79-4.74-12.32.44-8.05,1.95-13.94,8.77-18.78l-10.23-5.86c-3.51,7.74-11.97,12.7-20.48,12.2ZM20.66,125.76c-7.66,1.3-11.17,10.65-7.93,17.46,2.96,6.24,14.32,22.77,18.87,28.43,10.87,13.55,27.98,2.72,20.96-12.19l-22.48-31.64c-2.18-2.43-6.35-2.58-9.41-2.06Z" />
  </g>
</svg>