<svg xmlns="http://www.w3.org/2000/svg" width="30" height="30" viewBox="0 0 165.671 165.661" fill="currentColor">
  <g id="two-way" transform="translate(-2.5 -2.5)">
    <path id="Path_186" data-name="Path 186" d="M43.538,12.794H27.432a3.066,3.066,0,0,0-2.743,4.436L32.3,32.465,24.683,47.694a3.066,3.066,0,0,0,2.743,4.436h4.369v27.5H21.946a3.071,3.071,0,0,0-2.172,5.24L49.3,114.4a3.081,3.081,0,0,0,4.344,0L83.169,84.871A3.071,3.071,0,0,0,81,79.631H71.149V40.393A27.642,27.642,0,0,0,43.538,12.794Z" transform="translate(84.103 52.869)" />
    <path id="Path_187" data-name="Path 187" d="M67.449,36.266a3.061,3.061,0,0,0-.663-3.344L37.261,3.4a3.07,3.07,0,0,0-4.338,0L3.4,32.922a3.071,3.071,0,0,0,2.172,5.24h9.848V77.4a27.645,27.645,0,0,0,27.611,27.611H59.135a3.066,3.066,0,0,0,2.743-4.436L54.264,85.334l7.621-15.229a3.066,3.066,0,0,0-2.743-4.436H54.773V38.162h9.848a3.075,3.075,0,0,0,2.829-1.9Z" transform="translate(0 0)" />
    <path id="Path_188" data-name="Path 188" d="M39.834,12.794H24.249a3.073,3.073,0,0,0-2.743,1.693L13.2,31.091a3.08,3.08,0,0,0,0,2.743l8.308,16.6a3.073,3.073,0,0,0,2.743,1.693H39.828a3.073,3.073,0,0,0,2.743-1.693l8.308-16.6a3.08,3.08,0,0,0,0-2.743l-8.308-16.6a3.057,3.057,0,0,0-2.737-1.693Z" transform="translate(53.293 52.869)" />
  </g>
</svg>