<?xml version="1.0" encoding="utf-8"?><svg xmlns="http://www.w3.org/2000/svg" xmlns:xlink="http://www.w3.org/1999/xlink"><symbol viewBox="0 0 21 20" id="icon-child" xmlns="http://www.w3.org/2000/svg"><path d="M5.237 7.431a.417.417 0 00-.566.165l-.008.016a.417.417 0 10.73.4l.009-.015a.417.417 0 00-.165-.566z"/><path d="M18.571 8.756a8.335 8.335 0 00-4.97-5.66A3.268 3.268 0 0010.5.832a3.26 3.26 0 00-3.1 2.263 8.315 8.315 0 00-3.707 2.929 8.276 8.276 0 00-1.266 2.731A2.086 2.086 0 00.5 10.833c0 1.097.852 1.998 1.929 2.077.925 3.593 4.193 6.256 8.071 6.256s7.146-2.663 8.071-6.256a2.086 2.086 0 001.929-2.077 2.086 2.086 0 00-1.929-2.077zM1.333 10.833c0-.575.39-1.06.92-1.206-.036.25-.06.5-.074.751v.01a8.06 8.06 0 00-.007.139l-.001.052-.003.099a8.909 8.909 0 00.008.541c0 .02.002.039.003.059a8.7 8.7 0 00.01.171l.007.08.018.192.012.104.017.136.01.078a1.252 1.252 0 01-.92-1.206zM10.5 1.666c.825 0 1.58.424 2.02 1.088h-.047A2.374 2.374 0 0010.57 6.51h-.07a2.424 2.424 0 01-2.422-2.42A2.424 2.424 0 0110.5 1.665zm7.497 9.364v.03a7.812 7.812 0 01-.008.168l-.001.03a7.783 7.783 0 01-.011.168l-.003.033a7.93 7.93 0 01-.015.162l-.006.044c-.005.05-.01.099-.017.148l-.009.061a7.633 7.633 0 01-.018.127l-.014.083-.018.102-.02.104-.015.078c-.71 3.402-3.732 5.965-7.342 5.965-3.612 0-6.636-2.567-7.344-5.973l-.018-.093-.017-.089a7.79 7.79 0 01-.022-.126l-.01-.059a7.873 7.873 0 01-.022-.16l-.004-.028a7.554 7.554 0 01-.054-1.326l.003-.068.007-.106.015-.18.002-.021a7.545 7.545 0 014.21-6.029l-.001.013c0 .291.04.581.117.862a6.611 6.611 0 00-1.956 1.58.417.417 0 10.637.537 5.783 5.783 0 011.643-1.346 3.256 3.256 0 003.888 1.44.417.417 0 00.089-.744 1.54 1.54 0 01.782-2.83 7.496 7.496 0 015.423 5.842l.013.071a8.303 8.303 0 01.048.304l.007.053c.016.121.03.244.04.366l.002.042c.009.11.014.221.018.332l.002.052a7.467 7.467 0 010 .38zm.75 1.009l.012-.095a8.59 8.59 0 00.045-.418l.007-.075.01-.174.003-.056a9.327 9.327 0 00.003-.716l-.004-.074a12.887 12.887 0 00-.015-.25l-.007-.083-.008-.08-.008-.083-.01-.093a8.728 8.728 0 00-.013-.103l-.016-.112a1.251 1.251 0 010 2.412z"/><path d="M9.017 11.315a1.67 1.67 0 00-1.61-1.235 1.67 1.67 0 00-1.61 1.235.417.417 0 00.805.216.835.835 0 011.61 0 .417.417 0 00.805-.216zm4.575-1.235a1.67 1.67 0 00-1.61 1.236.417.417 0 00.805.215.835.835 0 011.61 0 .417.417 0 00.804-.216 1.669 1.669 0 00-1.61-1.235zm-1.777 4.159a.417.417 0 00-.51.295.835.835 0 01-1.61 0 .417.417 0 10-.805.215 1.669 1.669 0 001.61 1.236 1.67 1.67 0 001.61-1.236.417.417 0 00-.295-.51z"/></symbol><symbol stroke-width="2" stroke-linecap="round" stroke-linejoin="round" class="bicon bicon-tabler bicons-tabler-outline bicon-tabler-x" viewBox="0 0 24 24" id="icon-close" xmlns="http://www.w3.org/2000/svg"><path d="M0 0h24v24H0zM18 6L6 18M6 6l12 12"/></symbol><symbol class="cicon cicon-tabler cicons-tabler-filled cicon-tabler-brand-facebook" viewBox="0 0 24 24" id="icon-facebook" xmlns="http://www.w3.org/2000/svg"><path d="M0 0h24v24H0z"/><path d="M18 2a1 1 0 01.993.883L19 3v4a1 1 0 01-.883.993L18 8h-3v1h3a1 1 0 01.991 1.131l-.02.112-1 4a1 1 0 01-.858.75L17 15h-2v6a1 1 0 01-.883.993L14 22h-4a1 1 0 01-.993-.883L9 21v-6H7a1 1 0 01-.993-.883L6 14v-4a1 1 0 01.883-.993L7 9h2V8a6 6 0 015.775-5.996L15 2h3z"/></symbol><symbol stroke-width="2" stroke-linecap="round" stroke-linejoin="round" class="dicon dicon-tabler dicons-tabler-outline dicon-tabler-brand-instagram" viewBox="0 0 24 24" id="icon-instagram" xmlns="http://www.w3.org/2000/svg"><path d="M0 0h24v24H0z"/><path d="M4 8a4 4 0 014-4h8a4 4 0 014 4v8a4 4 0 01-4 4H8a4 4 0 01-4-4z"/><path d="M9 12a3 3 0 106 0 3 3 0 00-6 0m7.5-4.5v.01"/></symbol><symbol viewBox="0 0 24 24" id="icon-menu" xmlns="http://www.w3.org/2000/svg"><rect width="24" height="2" y="11" rx="1" data-original="#000000"/><rect width="24" height="2" y="4" rx="1" data-original="#000000"/><rect width="24" height="2" y="18" rx="1" data-original="#000000"/></symbol><symbol class="ficon ficon-tabler ficons-tabler-filled ficon-tabler-brand-x" viewBox="0 0 24 24" id="icon-x" xmlns="http://www.w3.org/2000/svg"><path d="M0 0h24v24H0z"/><path d="M8.267 3a1 1 0 01.73.317l.076.092 4.274 5.828 5.946-5.944a1 1 0 011.497 1.32l-.083.094-6.163 6.162 6.262 8.54a1 1 0 01-.697 1.585L20 21h-4.267a1 1 0 01-.73-.317l-.076-.092-4.276-5.829-5.944 5.945a1 1 0 01-1.497-1.32l.083-.094 6.161-6.163-6.26-8.539a1 1 0 01.697-1.585L4 3h4.267z"/></symbol></svg>